<?xml version="1.0" encoding="UTF-8"?>
<svg clip-rule="evenodd" fill-rule="evenodd" image-rendering="optimizeQuality" shape-rendering="geometricPrecision" text-rendering="geometricPrecision" version="1.1" viewBox="0 0 350 87.58" xmlns="http://www.w3.org/2000/svg">
 <g stroke-width=".17551">
  <path d="m260.46 0h10.882c14.178 2.1714 25.117 9.2796 32.821 21.325a94.789 94.789 0 0 0 4.5633-1.2286c12.637-2.5928 23.489 0.65413 32.558 9.7409 8.5053 10.056 10.787 21.406 6.8449 34.049a58.457 58.457 0 0 1-2.0184 4.8266c0.8706 3.1399 1.778 6.2698 2.7205 9.3899 0.3282 3.5327-1.2795 5.2585-4.8266 5.1776-3.1347-0.592-6.2658-1.2063-9.3899-1.8429-10.531 6.5847-21.56 7.55-33.084 2.8959-2.8872-1.3392-5.548-3.0065-7.9858-5.0021-6.1236 4.4501-12.939 7.1997-20.447 8.249h-10.882c-7.2381-1.0768-13.936-3.5924-20.096-7.547a952.6 952.6 0 0 1-13.778 2.6327c-2.8819-0.39349-4.2562-2.0317-4.1245-4.9143 1.2812-4.4859 2.5975-8.9614 3.949-13.427-6.1341-12.087-6.9239-24.519-2.3694-37.296 6.5589-15.422 18.113-24.432 34.664-27.029zm2.8082 8.0735c14.446-0.35454 25.62 5.4374 33.523 17.376-11.626 8.8677-16.337 20.568-14.129 35.102 0.9354 4.4708 2.6607 8.5953 5.1776 12.374-6.7414 4.8587-14.288 7.0233-22.641 6.4939-7.2346-0.55795-13.729-3.0151-19.482-7.3715-1.104-0.57586-2.2747-0.75137-3.5103-0.52654-2.5221 0.46353-5.0372 0.96075-7.547 1.4918-0.1176-0.0584-0.2334-0.11706-0.351-0.17551a133.13 133.13 0 0 0 2.6327-9.1266 15.824 15.824 0 0 0-0.4388-1.7551c-6.2745-10.798-7.0345-21.972-2.2817-33.523 5.9446-12.087 15.628-18.873 29.047-20.359zm50.547 19.482c10.785-0.67747 19.006 3.5348 24.659 12.637 3.3207 6.333 4.0227 12.944 2.1061 19.833a51.335 51.335 0 0 1-3.1592 7.3715c-0.1176 0.52653-0.1176 1.0531 0 1.5796a142.81 142.81 0 0 1 1.3163 4.7388c-1.462-0.25151-2.9257-0.51478-4.3878-0.7898-1.1969-0.18324-2.3097 0.0507-3.3347 0.70204-7.5435 5.4321-15.735 6.6607-24.572 3.6858-10.178-4.4634-15.561-12.274-16.147-23.431 0.7038-11.959 6.5536-20.237 17.551-24.835 1.971-0.668 3.9595-1.1652 5.9674-1.4918z" fill="#0ca3f1" opacity=".99"/>
  <path d="m88.107 6.845h17.551v57.568h-11.759v-45.984h-5.7919z" fill="#fefffe" opacity=".977"/>
  <path d="m262.57 18.429c4.7142-0.35558 9.1599 0.55129 13.339 2.7204 5.0652 3.3768 7.0239 8.0863 5.8796 14.129-0.9021 2.9437-2.5695 5.3715-5.0021 7.2837a70.033 70.033 0 0 0-6.5817 5.1776c-0.5844 1.287-1.1706 2.5742-1.7551 3.8613-1.8973 1.9824-4.1508 2.4796-6.7572 1.4918-2.4185-1.5368-3.3259-3.7307-2.7204-6.5817 0.3019-1.4215 0.8863-2.7085 1.7551-3.8613a47.748 47.748 0 0 1 6.4062-5.5286 14.903 14.903 0 0 0 2.5449-2.896c1.0583-4.0038-0.4914-6.1099-4.6511-6.3184-1.7024-0.0476-3.1364 0.5376-4.3 1.7551a64.914 64.914 0 0 0-2.1061 4.0368c-1.0549 1.859-2.6625 2.795-4.8266 2.8082-3.347-0.0709-5.1601-1.7676-5.4409-5.0898 0.3124-3.6772 1.892-6.6902 4.7388-9.0388 2.824-2.1442 5.9832-3.4606 9.4777-3.949z" fill="#0ca3f1" opacity=".991"/>
 </g>
 <g fill="#fefffe" stroke-width=".17551">
  <path d="m64.062 19.657c6.9489-0.28819 12.887 1.9935 17.814 6.845a14.648 14.648 0 0 1 2.0184 2.6327 2030.2 2030.2 0 0 1-20.359 24.572c5.5 0.95039 9.5659-1.0387 12.198-5.9674l8.1613 8.1613c-6.6707 8.4634-15.212 11.154-25.625 8.0735-8.3877-3.42-13.156-9.6507-14.304-18.692-0.8823-8.1794 1.6626-15.053 7.6348-20.623 3.6686-2.89 7.8222-4.5573 12.461-5.0021zm0.70205 11.233c1.3323-0.0916 2.6193 0.0839 3.8613 0.52654a1693.3 1693.3 0 0 0-12.374 16.498 4.4705 4.4705 0 0 1-0.70204-1.5796c-1.3163-5.1815-0.0584-9.5984 3.7735-13.251 1.6437-1.2002 3.4572-1.9313 5.4409-2.1939z" opacity=".98"/>
  <path d="m181.3 19.833c9.109-0.63729 16.159 2.8143 21.149 10.355 2.8293 5.2904 3.7648 10.907 2.8082 16.849-1.8674 9.9408-7.7471 15.938-17.639 17.99-3.2224 0.53285-6.3816 0.2989-9.4776-0.70205a36.344 36.344 0 0 1-5.2654-2.5449c-0.17551 6.3174-0.23395 12.636-0.17551 18.955h-11.233v-59.323c0.9962-0.0291 1.9908 1.8e-4 2.9837 0.0878a264.82 264.82 0 0 1 4.1245 5.0021c3.5766-3.4995 7.819-5.7226 12.725-6.6694zm1.2286 11.057c6.9256 0.0513 10.875 3.503 11.847 10.355 0.3914 4.5031-1.1584 8.1595-4.6511 10.969-4.4474 2.6-8.7773 2.4245-12.988-0.52654-3.958-4.0504-4.9818-8.76-3.0715-14.129 1.734-3.8713 4.6879-6.0945 8.8634-6.6694z" opacity=".983"/>
  <path d="m17.025 20.535c9.2235-0.49529 15.864 3.366 19.921 11.584a17.546 17.546 0 0 1 1.4041 5.2654c0.0878 9.0094 0.11707 18.019 0.0878 27.029h-11.057a682.57 682.57 0 0 0-0.26326-26.502c-1.7112-4.8794-5.1337-6.8392-10.267-5.8796-3.1768 1.1868-5.0781 3.4392-5.7041 6.7572-0.0878 8.5414-0.11707 17.083-0.0878 25.625h-11.057v-43a12.836 12.836 0 0 1 2.9837 0.17551 49.83 49.83 0 0 0 3.3347 3.6858c3.1318-2.5902 6.7007-4.1698 10.706-4.7388z" opacity=".985"/>
  <path d="m114.78 21.412h11.057c-0.0837 8.7238 4e-3 17.441 0.26327 26.151 0.96935 4.1867 3.602 6.4099 7.898 6.6694 2.8447-0.31118 5.0679-1.6566 6.6694-4.0368a11.066 11.066 0 0 0 1.2286-2.9837 647.55 647.55 0 0 0 0.26326-25.8h11.057v43a22.554 22.554 0 0 1-2.8082-0.0878 45.749 45.749 0 0 0-3.5102-4.651 32.491 32.491 0 0 1-6.3184 4.1245c-7.5458 2.7132-14.303 1.3969-20.272-3.949-2.8275-3.0227-4.5826-6.5913-5.2654-10.706a757.49 757.49 0 0 1-0.26327-27.731z" opacity=".986"/>
 </g>
 <g stroke-width=".17551">
  <path d="m326.1 49.319c2.7327-0.0165 4.2544 1.329 4.5633 4.0368-0.6055 3.3245-2.5361 4.524-5.7919 3.598-2.0447-1.2761-2.659-3.0604-1.8429-5.3531 0.7003-1.2116 1.7253-1.9722 3.0715-2.2816z" fill="#0ca3f1" opacity=".984"/>
  <path d="m304.86 49.319c3.089 0.19341 4.5229 1.8315 4.3 4.9143-0.5669 1.9229-1.8534 2.976-3.8612 3.1592-3.6068-0.77874-4.7195-2.8849-3.3348-6.3184 0.7828-0.93688 1.7481-1.5219 2.896-1.7551z" fill="#0ca2f1" opacity=".982"/>
  <path d="m314.87 49.494c3.5681-0.14796 5.1758 1.5487 4.8265 5.0898-1.4409 2.742-3.5172 3.3563-6.2306 1.8429-1.355-1.2969-1.7359-2.8472-1.1409-4.6511 0.5546-1.112 1.4041-1.8725 2.545-2.2816z" fill="#0ca3f1" opacity=".975"/>
  <path d="m262.74 55.637c4.7353-0.46897 7.368 1.6372 7.898 6.3184-0.5037 4.6132-3.0767 6.69-7.7225 6.2307-3.849-1.217-5.4584-3.8204-4.8266-7.8103 0.7635-2.3722 2.3133-3.9518 4.6511-4.7388z" fill="#0ca3f1" opacity=".988"/>
 </g>
</svg>
