<svg xmlns="http://www.w3.org/2000/svg" xmlns:xlink="http://www.w3.org/1999/xlink" width="472" height="118"><defs><clipPath id="b"><path d="M0 0h472v118H0Z"/></clipPath><clipPath id="c"><path d="M0 0h472v118H0Z"/></clipPath><clipPath id="d"><path d="M0 0h472v118H0Z"/></clipPath><clipPath id="e"><path d="M0 0h472v118H0Z"/></clipPath><clipPath id="f"><path d="M0 0h472v118H0Z"/></clipPath><clipPath id="g"><path d="M0 0h472v118H0Z"/></clipPath><clipPath id="h"><path d="M0 0h472v118H0Z"/></clipPath><clipPath id="i"><path d="M0 0h472v118H0Z"/></clipPath><clipPath id="j"><path d="M0 0h472v118H0Z"/></clipPath><clipPath id="k"><path d="M0 0h472v118H0Z"/></clipPath><clipPath id="l"><path d="M0 0h472v118H0Z"/></clipPath><mask id="n"><g filter="url(#a)"><path d="M0 0h472v118H0Z" style="fill:#000;fill-opacity:.988235;stroke:none"/></g></mask><mask id="p"><g filter="url(#a)"><path d="M0 0h472v118H0Z" style="fill:#000;fill-opacity:.976471;stroke:none"/></g></mask><mask id="r"><g filter="url(#a)"><path d="M0 0h472v118H0Z" style="fill:#000;fill-opacity:.992157;stroke:none"/></g></mask><mask id="t"><g filter="url(#a)"><path d="M0 0h472v118H0Z" style="fill:#000;fill-opacity:.980392;stroke:none"/></g></mask><mask id="v"><g filter="url(#a)"><path d="M0 0h472v118H0Z" style="fill:#000;fill-opacity:.984314;stroke:none"/></g></mask><mask id="x"><g filter="url(#a)"><path d="M0 0h472v118H0Z" style="fill:#000;fill-opacity:.984314;stroke:none"/></g></mask><mask id="z"><g filter="url(#a)"><path d="M0 0h472v118H0Z" style="fill:#000;fill-opacity:.984314;stroke:none"/></g></mask><mask id="B"><g filter="url(#a)"><path d="M0 0h472v118H0Z" style="fill:#000;fill-opacity:.984314;stroke:none"/></g></mask><mask id="D"><g filter="url(#a)"><path d="M0 0h472v118H0Z" style="fill:#000;fill-opacity:.980392;stroke:none"/></g></mask><mask id="F"><g filter="url(#a)"><path d="M0 0h472v118H0Z" style="fill:#000;fill-opacity:.976471;stroke:none"/></g></mask><mask id="H"><g filter="url(#a)"><path d="M0 0h472v118H0Z" style="fill:#000;fill-opacity:.988235;stroke:none"/></g></mask><g id="m" clip-path="url(#b)"><path d="M350.813-.117h14.632c19.067 2.926 33.774 12.5 44.133 28.73q3.09-.748 6.137-1.656 25.486-5.238 43.777 13.125 17.156 20.324 9.203 45.875a78 78 0 0 1-2.715 6.504c1.172 4.23 2.391 8.45 3.66 12.652q.663 7.136-6.492 6.977a924 924 0 0 1-12.625-2.485q-21.24 13.307-44.484 3.903a50.2 50.2 0 0 1-10.738-6.742q-12.352 8.995-27.496 11.117h-14.63c-9.734-1.453-18.738-4.84-27.023-10.168a1301 1301 0 0 1-18.527 3.547q-5.812-.798-5.547-6.621a1247 1247 0 0 1 5.313-18.09c-8.25-16.285-9.313-33.04-3.188-50.254 8.82-20.777 24.356-32.918 46.61-36.414m3.777 10.875q29.138-.715 45.074 23.414c-15.629 11.945-21.965 27.71-18.996 47.293q1.887 9.036 6.96 16.672c-9.062 6.547-19.21 9.46-30.44 8.75-9.731-.754-18.461-4.063-26.2-9.934a7.15 7.15 0 0 0-4.718-.707 374.324 374.324 0 0 0-10.149 2.008q-.233-.117-.473-.234a180 180 0 0 0 3.543-12.297q-.23-1.201-.59-2.368-12.655-21.82-3.07-45.164c7.992-16.285 21.016-25.43 39.059-27.433m67.969 26.25q21.751-1.37 33.156 17.027 6.698 12.797 2.832 26.719a69 69 0 0 1-4.246 9.933 4.786 4.786 0 0 0 0 2.13 200 200 0 0 1 1.77 6.382 346 346 0 0 1-5.9-1.062c-1.612-.246-3.108.066-4.483.945q-15.218 10.978-33.043 4.965-20.527-9.019-21.711-31.567 1.418-24.168 23.601-33.46a50 50 0 0 1 8.024-2.012m0 0" style="fill:#0ca3f1;fill-opacity:1;fill-rule:evenodd;stroke:none"/></g><g id="o" clip-path="url(#c)"><path d="M119.063 9.105h23.597v77.563h-15.808V24.711h-7.79zm0 0" style="fill:#fefffe;fill-opacity:1;fill-rule:evenodd;stroke:none"/></g><g id="q" clip-path="url(#d)"><path d="M353.645 24.71c6.34-.48 12.316.743 17.937 3.665 6.813 4.55 9.445 10.898 7.906 19.04q-1.822 5.945-6.726 9.812a94 94 0 0 0-8.852 6.976l-2.36 5.203c-2.55 2.668-5.581 3.34-9.085 2.008-3.25-2.07-4.473-5.027-3.656-8.867a13.1 13.1 0 0 1 2.359-5.203 64 64 0 0 1 8.613-7.45 19.9 19.9 0 0 0 3.422-3.902q2.138-8.09-6.254-8.512-3.433-.092-5.781 2.364a87 87 0 0 0-2.832 5.441c-1.418 2.504-3.578 3.766-6.488 3.781q-6.755-.14-7.317-6.855c.418-4.953 2.543-9.016 6.371-12.18q5.694-4.33 12.743-5.32m0 0" style="fill:#0ca3f1;fill-opacity:1;fill-rule:evenodd;stroke:none"/></g><g id="s" clip-path="url(#e)"><path d="M86.73 26.367q14.016-.585 23.954 9.223a19.8 19.8 0 0 1 2.714 3.547 2770 2770 0 0 1-27.375 33.105c7.395 1.281 12.86-1.398 16.403-8.039L113.398 75.2c-8.968 11.403-20.457 15.028-34.457 10.875q-16.914-6.908-19.234-25.183-1.776-16.53 10.266-27.786 7.4-5.841 16.757-6.738m.946 15.133c1.789-.121 3.52.113 5.191.71a2300 2300 0 0 0-16.64 22.228 6 6 0 0 1-.942-2.126q-2.654-10.474 5.074-17.855c2.207-1.617 4.649-2.602 7.317-2.957m0 0" style="fill:#fefffe;fill-opacity:1;fill-rule:evenodd;stroke:none"/></g><g id="u" clip-path="url(#f)"><path d="M244.379 26.602q18.37-1.286 28.437 13.953 5.707 10.692 3.778 22.703c-2.512 13.39-10.418 21.472-23.719 24.238a26.65 26.65 0 0 1-12.746-.945 49 49 0 0 1-7.078-3.43 687 687 0 0 0-.238 25.54H217.71V28.73q2.009-.06 4.012.12a368 368 0 0 1 5.547 6.739q7.212-7.072 17.109-8.988M246.03 41.5q13.968.106 15.93 13.953.786 9.099-6.254 14.781c-5.98 3.5-11.805 3.266-17.465-.71-5.32-5.458-6.699-11.805-4.129-19.036 2.332-5.218 6.301-8.21 11.918-8.988m0 0" style="fill:#fefffe;fill-opacity:1;fill-rule:evenodd;stroke:none"/></g><g id="w" clip-path="url(#g)"><path d="M23.48 27.55q18.605-1 26.79 15.606a23.8 23.8 0 0 1 1.886 7.094q.176 18.208.117 36.418H37.406a914 914 0 0 0-.355-35.707q-3.452-9.861-13.805-7.922-6.408 2.398-7.672 9.102-.175 17.267-.117 34.527H.59V28.73a17.3 17.3 0 0 1 4.012.239 68 68 0 0 0 4.484 4.965c4.21-3.489 9.012-5.618 14.394-6.383m0 0" style="fill:#fefffe;fill-opacity:1;fill-rule:evenodd;stroke:none"/></g><g id="y" clip-path="url(#h)"><path d="M154.934 28.73H169.8a898 898 0 0 0 .355 35.235q1.956 8.46 10.621 8.988 5.737-.632 8.965-5.441a14.837 14.837 0 0 0 1.653-4.02q.525-17.375.355-34.762h14.867v57.938c-1.258.039-2.52 0-3.773-.117a62 62 0 0 0-4.723-6.27 43.5 43.5 0 0 1-8.496 5.559q-15.217 5.484-27.258-5.32-5.7-6.112-7.078-14.426-.521-18.676-.355-37.364m0 0" style="fill:#fefffe;fill-opacity:1;fill-rule:evenodd;stroke:none"/></g><g id="A" clip-path="url(#i)"><path d="M439.078 66.332c3.676-.023 5.719 1.79 6.137 5.438-.817 4.48-3.41 6.093-7.79 4.847-2.75-1.719-3.573-4.125-2.476-7.21q1.414-2.452 4.13-3.075m0 0" style="fill:#0ca3f1;fill-opacity:1;fill-rule:evenodd;stroke:none"/></g><g id="C" clip-path="url(#j)"><path d="M410.523 66.332q6.23.387 5.782 6.621-1.143 3.885-5.192 4.254c-4.851-1.047-6.347-3.887-4.484-8.512 1.05-1.261 2.351-2.05 3.894-2.363m0 0" style="fill:#0ca2f1;fill-opacity:1;fill-rule:evenodd;stroke:none"/></g><g id="E" clip-path="url(#k)"><path d="M423.973 66.566c4.8-.199 6.96 2.086 6.492 6.86q-2.906 5.541-8.38 2.48-2.73-2.62-1.534-6.265c.746-1.496 1.89-2.524 3.422-3.075m0 0" style="fill:#0ca3f1;fill-opacity:1;fill-rule:evenodd;stroke:none"/></g><g id="G" clip-path="url(#l)"><path d="M353.883 74.844c6.367-.633 9.906 2.207 10.62 8.511-.679 6.215-4.14 9.016-10.386 8.395q-7.765-2.456-6.488-10.523 1.54-4.795 6.254-6.383m0 0" style="fill:#0ca3f1;fill-opacity:1;fill-rule:evenodd;stroke:none"/></g><filter id="a" width="1" height="1" x="0" y="0" filterUnits="objectBoundingBox"><feColorMatrix in="SourceGraphic" values="0 0 0 0 1 0 0 0 0 1 0 0 0 0 1 0 0 0 1 0"/></filter></defs><use xlink:href="#m" mask="url(#n)"/><use xlink:href="#o" mask="url(#p)"/><use xlink:href="#q" mask="url(#r)"/><use xlink:href="#s" mask="url(#t)"/><use xlink:href="#u" mask="url(#v)"/><use xlink:href="#w" mask="url(#x)"/><use xlink:href="#y" mask="url(#z)"/><use xlink:href="#A" mask="url(#B)"/><use xlink:href="#C" mask="url(#D)"/><use xlink:href="#E" mask="url(#F)"/><use xlink:href="#G" mask="url(#H)"/></svg>