<svg xmlns="http://www.w3.org/2000/svg" width="2000" height="499" style="shape-rendering:geometricPrecision;text-rendering:geometricPrecision;image-rendering:optimizeQuality;fill-rule:evenodd;clip-rule:evenodd"><path fill="#0ca3f1" d="M1486.5-.5h62c80.78 12.372 143.11 52.872 187 121.5a540.073 540.073 0 0 0 26-7c72-14.773 133.83 3.727 185.5 55.5 48.46 57.298 61.46 121.965 39 194a333.068 333.068 0 0 1-11.5 27.5c4.96 17.89 10.13 35.723 15.5 53.5 1.87 20.128-7.29 29.961-27.5 29.5-17.86-3.373-35.7-6.873-53.5-10.5-60 37.517-122.84 43.017-188.5 16.5-16.45-7.63-31.61-17.13-45.5-28.5-34.89 25.355-73.72 41.021-116.5 47h-62c-41.24-6.135-79.4-20.468-114.5-43a5427.553 5427.553 0 0 1-78.5 15c-16.42-2.242-24.25-11.576-23.5-28 7.3-25.559 14.8-51.059 22.5-76.5-34.95-68.868-39.45-139.701-13.5-212.5 37.37-87.87 103.2-139.204 197.5-154Zm16 46c82.31-2.02 145.97 30.98 191 99-66.24 50.525-93.08 117.191-80.5 200 5.33 25.473 15.16 48.973 29.5 70.5-38.41 27.683-81.41 40.016-129 37-41.22-3.179-78.22-17.179-111-42-6.29-3.281-12.96-4.281-20-3-14.37 2.641-28.7 5.474-43 8.5-.67-.333-1.33-.667-2-1a758.502 758.502 0 0 0 15-52 90.158 90.158 0 0 0-2.5-10c-35.75-61.522-40.08-125.188-13-191 33.87-68.868 89.04-107.534 165.5-116Zm288 111c61.45-3.86 108.29 20.14 140.5 72 18.92 36.083 22.92 73.749 12 113a292.49 292.49 0 0 1-18 42c-.67 3-.67 6 0 9a813.686 813.686 0 0 1 7.5 27c-8.33-1.433-16.67-2.933-25-4.5-6.82-1.044-13.16.289-19 4-42.98 30.95-89.65 37.95-140 21-57.99-25.431-88.66-69.931-92-133.5 4.01-68.136 37.34-115.303 100-141.5 11.23-3.806 22.56-6.639 34-8.5Z" style="opacity:.99"/><path fill="#fefffe" d="M504.5 38.5h100v328h-67v-262h-33v-66Z" style="opacity:.977"/><path fill="#0ca3f1" d="M1498.5 104.5c26.86-2.026 52.19 3.141 76 15.5 28.86 19.24 40.02 46.073 33.5 80.5-5.14 16.772-14.64 30.605-28.5 41.5a399.024 399.024 0 0 0-37.5 29.5c-3.33 7.333-6.67 14.667-10 22-10.81 11.295-23.65 14.128-38.5 8.5-13.78-8.756-18.95-21.256-15.5-37.5 1.72-8.099 5.05-15.432 10-22a272.048 272.048 0 0 1 36.5-31.5 84.91 84.91 0 0 0 14.5-16.5c6.03-22.812-2.8-34.812-26.5-36-9.7-.271-17.87 3.063-24.5 10a369.853 369.853 0 0 0-12 23c-6.01 10.592-15.17 15.925-27.5 16-19.07-.404-29.4-10.071-31-29 1.78-20.951 10.78-38.118 27-51.5 16.09-12.217 34.09-19.717 54-22.5Z" style="opacity:.991"/><path fill="#fefffe" d="M367.5 111.5c39.592-1.642 73.425 11.358 101.5 39a83.459 83.459 0 0 1 11.5 15 11567.596 11567.596 0 0 1-116 140c31.337 5.415 54.503-5.918 69.5-34l46.5 46.5c-38.007 48.221-86.673 63.554-146 46-47.79-19.486-74.957-54.986-81.5-106.5-5.027-46.603 9.473-85.769 43.5-117.5 20.902-16.466 44.568-25.966 71-28.5Zm4 64c7.591-.522 14.924.478 22 3a9648.063 9648.063 0 0 0-70.5 94 25.471 25.471 0 0 1-4-9c-7.5-29.522-.333-54.688 21.5-75.5 9.365-6.838 19.698-11.004 31-12.5Z" style="opacity:.98"/><path fill="#fefffe" d="M1035.5 112.5c51.9-3.631 92.07 16.035 120.5 59 16.12 30.143 21.45 62.143 16 96-10.64 56.639-44.14 90.806-100.5 102.5-18.36 3.036-36.36 1.703-54-4a207.076 207.076 0 0 1-30-14.5c-1 35.994-1.333 71.994-1 108h-64v-338c5.676-.166 11.343.001 17 .5a1508.848 1508.848 0 0 1 23.5 28.5c20.378-19.939 44.55-32.605 72.5-38Zm7 63c39.46.292 61.96 19.959 67.5 59 2.23 25.657-6.6 46.49-26.5 62.5-25.34 14.814-50.01 13.814-74-3-22.551-23.078-28.384-49.911-17.5-80.5 9.88-22.057 26.71-34.724 50.5-38Z" style="opacity:.983"/><path fill="#fefffe" d="M99.5 116.5c52.552-2.822 90.385 19.178 113.5 66a99.968 99.968 0 0 1 8 30c.5 51.332.667 102.666.5 154h-63a3889.048 3889.048 0 0 0-1.5-151c-9.75-27.801-29.25-38.967-58.5-33.5-18.1 6.762-28.933 19.595-32.5 38.5-.5 48.666-.667 97.332-.5 146h-63v-245a73.134 73.134 0 0 1 17 1 283.912 283.912 0 0 0 19 21c17.844-14.758 38.178-23.758 61-27Z" style="opacity:.985"/><path fill="#fefffe" d="M656.5 121.5h63c-.477 49.705.023 99.372 1.5 149 5.523 23.854 20.523 36.521 45 38 16.208-1.773 28.875-9.439 38-23a63.052 63.052 0 0 0 7-17 3689.5 3689.5 0 0 0 1.5-147h63v245a128.507 128.507 0 0 1-16-.5 260.66 260.66 0 0 0-20-26.5 185.123 185.123 0 0 1-36 23.5c-42.993 15.459-81.493 7.959-115.5-22.5-16.11-17.222-26.11-37.555-30-61a4315.905 4315.905 0 0 1-1.5-158Z" style="opacity:.986"/><path fill="#0ca3f1" d="M1860.5 280.5c15.57-.094 24.24 7.572 26 23-3.45 18.942-14.45 25.776-33 20.5-11.65-7.271-15.15-17.437-10.5-30.5 3.99-6.903 9.83-11.237 17.5-13Z" style="opacity:.984"/><path fill="#0ca2f1" d="M1739.5 280.5c17.6 1.102 25.77 10.435 24.5 28-3.23 10.956-10.56 16.956-22 18-20.55-4.437-26.89-16.437-19-36 4.46-5.338 9.96-8.671 16.5-10Z" style="opacity:.982"/><path fill="#0ca3f1" d="M1796.5 281.5c20.33-.843 29.49 8.824 27.5 29-8.21 15.623-20.04 19.123-35.5 10.5-7.72-7.389-9.89-16.222-6.5-26.5 3.16-6.336 8-10.669 14.5-13Z" style="opacity:.975"/><path fill="#0ca3f1" d="M1499.5 316.5c26.98-2.672 41.98 9.328 45 36-2.87 26.284-17.53 38.117-44 35.5-21.93-6.934-31.1-21.767-27.5-44.5 4.35-13.516 13.18-22.516 26.5-27Z" style="opacity:.988"/></svg>