<?xml version="1.0" encoding="UTF-8" standalone="no"?>
<svg
   width="350"
   height="87.580322"
   viewBox="0 0 354 128"
   preserveAspectRatio="xMidYMidt"
   zoomAndPan="magnify"
   style="clip-rule:evenodd;fill-rule:evenodd;image-rendering:optimizeQuality;shape-rendering:geometricPrecision;text-rendering:geometricPrecision"
   version="1.1"
   id="svg11"
   xmlns="http://www.w3.org/2000/svg"
   xmlns:svg="http://www.w3.org/2000/svg">
  <defs
     id="defs11" />
  <path
     fill="#0ca3f1"
     d="m 260.45927,0 h 10.8818 c 14.1778,2.17143 25.1174,9.27965 32.8206,21.32467 a 94.789111,94.789111 0 0 0 4.5633,-1.22858 c 12.6369,-2.59284 23.4888,0.65413 32.5575,9.74089 8.5053,10.05647 10.7869,21.40628 6.8449,34.04927 a 58.457319,58.457319 0 0 1 -2.0184,4.82657 c 0.8706,3.1399 1.778,6.2698 2.7205,9.38987 0.3282,3.5327 -1.2795,5.25851 -4.8266,5.17759 -3.1347,-0.592 -6.2658,-1.20629 -9.3899,-1.84287 -10.5307,6.58467 -21.5598,7.54999 -33.0839,2.89594 -2.8872,-1.33915 -5.548,-3.00651 -7.9858,-5.00208 -6.1236,4.4501 -12.9387,7.19967 -20.4471,8.24905 h -10.8817 c -7.2381,-1.07676 -13.9357,-3.59237 -20.0961,-7.547 a 952.59886,952.59886 0 0 1 -13.7777,2.63267 c -2.8819,-0.39349 -4.2562,-2.03172 -4.1245,-4.91432 1.2812,-4.48591 2.5975,-8.96145 3.949,-13.42665 -6.1341,-12.08713 -6.9239,-24.51915 -2.3694,-37.29622 C 232.35467,11.60659 243.90857,2.59687 260.45927,0 Z m 2.8082,8.07354 c 14.4464,-0.35454 25.6195,5.43735 33.5228,17.37565 -11.6259,8.86773 -16.3367,20.56839 -14.1287,35.10233 0.9354,4.47081 2.6607,8.59534 5.1776,12.37358 -6.7414,4.85869 -14.2884,7.02327 -22.641,6.49393 -7.2346,-0.55795 -13.7286,-3.01512 -19.4818,-7.37149 -1.104,-0.57586 -2.2747,-0.75137 -3.5103,-0.52654 -2.5221,0.46353 -5.0372,0.96075 -7.547,1.49185 -0.1176,-0.0584 -0.2334,-0.11706 -0.351,-0.17551 a 133.12595,133.12595 0 0 0 2.6327,-9.12661 15.823781,15.823781 0 0 0 -0.4388,-1.75511 c -6.2745,-10.79783 -7.0345,-21.97196 -2.2817,-33.52273 5.9446,-12.08714 15.6276,-18.87347 29.0472,-20.35935 z m 50.5474,19.48179 c 10.7852,-0.67747 19.0061,3.53481 24.6594,12.63684 3.3207,6.33299 4.0227,12.94381 2.1061,19.83282 a 51.335407,51.335407 0 0 1 -3.1592,7.37149 c -0.1176,0.52653 -0.1176,1.05307 0,1.5796 a 142.81138,142.81138 0 0 1 1.3163,4.73882 c -1.462,-0.25151 -2.9257,-0.51478 -4.3878,-0.7898 -1.1969,-0.18324 -2.3097,0.0507 -3.3347,0.70204 -7.5435,5.43209 -15.7346,6.66067 -24.5716,3.68575 -10.1779,-4.46344 -15.5609,-12.27371 -16.1471,-23.43081 0.7038,-11.95866 6.5536,-20.23702 17.5512,-24.8349 1.971,-0.668 3.9595,-1.16522 5.9674,-1.49185 z"
     style="opacity:0.99;stroke-width:0.175512"
     id="path1" />
  <path
     fill="#fefffe"
     d="m 88.10685,6.84495 h 17.55117 V 64.41278 H 93.89874 V 18.42872 h -5.79189 z"
     style="opacity:0.977;stroke-width:0.175512"
     id="path2" />
  <path
     fill="#0ca3f1"
     d="m 262.56547,18.42872 c 4.7142,-0.35558 9.1599,0.55129 13.3389,2.72044 5.0652,3.37684 7.0239,8.08634 5.8796,14.12868 -0.9021,2.94369 -2.5695,5.37154 -5.0021,7.28374 a 70.033367,70.033367 0 0 0 -6.5817,5.17759 c -0.5844,1.28703 -1.1706,2.57423 -1.7551,3.86126 -1.8973,1.9824 -4.1508,2.47963 -6.7572,1.49185 -2.4185,-1.53678 -3.3259,-3.73068 -2.7204,-6.58169 0.3019,-1.42147 0.8863,-2.7085 1.7551,-3.86126 a 47.747597,47.747597 0 0 1 6.4062,-5.52861 14.902695,14.902695 0 0 0 2.5449,-2.89595 c 1.0583,-4.00377 -0.4914,-6.10991 -4.6511,-6.31842 -1.7024,-0.0476 -3.1364,0.5376 -4.3,1.75512 a 64.913516,64.913516 0 0 0 -2.1061,4.03677 c -1.0549,1.85902 -2.6625,2.79502 -4.8266,2.80819 -3.347,-0.0709 -5.1601,-1.76758 -5.4409,-5.08984 0.3124,-3.67715 1.892,-6.69016 4.7388,-9.03885 2.824,-2.14423 5.9832,-3.46057 9.4777,-3.94902 z"
     style="opacity:0.991;stroke-width:0.175512"
     id="path3" />
  <path
     fill="#fefffe"
     d="m 64.06175,19.65731 c 6.94886,-0.28819 12.88695,1.99346 17.81444,6.84495 a 14.648028,14.648028 0 0 1 2.01838,2.63268 2030.248,2030.248 0 0 1 -20.35935,24.57163 c 5.50001,0.95039 9.56591,-1.03868 12.19806,-5.9674 l 8.16129,8.16129 C 77.2239,64.36381 68.68245,67.05493 58.26987,63.974 49.88217,60.55398 45.11404,54.32332 43.96567,45.28201 c -0.8823,-8.17937 1.66262,-15.05346 7.63475,-20.62262 3.66855,-2.88998 7.82221,-4.55734 12.46133,-5.00208 z m 0.70205,11.23274 c 1.33231,-0.0916 2.61934,0.0839 3.86126,0.52654 a 1693.3476,1693.3476 0 0 0 -12.37358,16.49809 4.4704576,4.4704576 0 0 1 -0.70204,-1.5796 c -1.31634,-5.18146 -0.0584,-9.59838 3.7735,-13.25113 1.64366,-1.20015 3.45723,-1.93133 5.44086,-2.1939 z"
     style="opacity:0.98;stroke-width:0.175512"
     id="path4" />
  <path
     fill="#fefffe"
     d="m 181.30357,19.83282 c 9.109,-0.63729 16.1593,2.81433 21.1491,10.35519 2.8293,5.29044 3.7648,10.90682 2.8082,16.84912 -1.8674,9.9408 -7.7471,15.93751 -17.6389,17.98994 -3.2224,0.53285 -6.3816,0.2989 -9.4776,-0.70205 a 36.344253,36.344253 0 0 1 -5.26539,-2.54491 c -0.17551,6.31736 -0.23395,12.63578 -0.17551,18.95526 H 161.47073 V 21.41242 c 0.9962,-0.0291 1.99083,1.8e-4 2.98369,0.0878 a 264.82042,264.82042 0 0 1 4.12453,5.00208 c 3.57658,-3.49953 7.81902,-5.72256 12.72462,-6.66944 z m 1.2286,11.05723 c 6.9256,0.0513 10.8747,3.50304 11.847,10.35519 0.3914,4.5031 -1.1584,8.15954 -4.6511,10.96948 -4.4474,2.60003 -8.7773,2.42452 -12.9878,-0.52654 -3.95799,-4.05045 -4.98175,-8.75996 -3.07148,-14.12868 1.73405,-3.87126 4.68788,-6.09447 8.86338,-6.66945 z"
     style="opacity:0.983;stroke-width:0.175512"
     id="path5" />
  <path
     fill="#fefffe"
     d="m 17.02463,20.53486 c 9.22349,-0.49529 15.86362,3.36597 19.92057,11.58377 a 17.54555,17.54555 0 0 1 1.40409,5.26535 c 0.0878,9.00937 0.11707,18.01908 0.0878,27.0288 H 27.37985 A 682.57329,682.57329 0 0 0 27.11659,37.91052 c -1.71124,-4.8794 -5.13372,-6.83916 -10.26744,-5.87964 -3.17676,1.18681 -5.07807,3.43915 -5.70412,6.7572 -0.0878,8.54145 -0.11707,17.0829 -0.0878,25.6247 H 0 V 21.41242 a 12.83587,12.83587 0 0 1 2.98369,0.17551 49.829868,49.829868 0 0 0 3.33472,3.68575 c 3.13184,-2.5902 6.70069,-4.16981 10.70622,-4.73882 z"
     style="opacity:0.985;stroke-width:0.175512"
     id="path6" />
  <path
     fill="#fefffe"
     d="m 114.78462,21.41242 h 11.05724 c -0.0837,8.72381 0.004,17.44095 0.26327,26.15124 0.96935,4.18666 3.60202,6.40986 7.89802,6.66944 2.84469,-0.31118 5.0679,-1.65665 6.66944,-4.03676 a 11.066361,11.066361 0 0 0 1.22859,-2.9837 647.55029,647.55029 0 0 0 0.26326,-25.80022 h 11.05724 v 43.00036 a 22.554478,22.554478 0 0 1 -2.80819,-0.0878 45.748871,45.748871 0 0 0 -3.51023,-4.65105 32.491246,32.491246 0 0 1 -6.31842,4.12452 c -7.54577,2.71323 -14.30297,1.3969 -20.2716,-3.94901 -2.82749,-3.02266 -4.58261,-6.59134 -5.26535,-10.70621 a 757.49167,757.49167 0 0 1 -0.26327,-27.73085 z"
     style="opacity:0.986;stroke-width:0.175512"
     id="path7" />
  <path
     fill="#0ca3f1"
     d="m 326.10067,49.31878 c 2.7327,-0.0165 4.2544,1.32897 4.5633,4.03677 -0.6055,3.32454 -2.5361,4.52398 -5.7919,3.59798 -2.0447,-1.27614 -2.659,-3.06039 -1.8429,-5.3531 0.7003,-1.21156 1.7253,-1.97223 3.0715,-2.28165 z"
     style="opacity:0.984;stroke-width:0.175512"
     id="path8" />
  <path
     fill="#0ca2f1"
     d="m 304.86377,49.31878 c 3.089,0.19341 4.5229,1.83146 4.3,4.91432 -0.5669,1.92291 -1.8534,2.97598 -3.8612,3.15921 -3.6068,-0.77874 -4.7195,-2.88488 -3.3348,-6.31842 0.7828,-0.93688 1.7481,-1.52186 2.896,-1.75511 z"
     style="opacity:0.982;stroke-width:0.175512"
     id="path9" />
  <path
     fill="#0ca3f1"
     d="m 314.86797,49.49429 c 3.5681,-0.14796 5.1758,1.54871 4.8265,5.08984 -1.4409,2.74202 -3.5172,3.35631 -6.2306,1.84287 -1.355,-1.29686 -1.7359,-2.84715 -1.1409,-4.65106 0.5546,-1.11204 1.4041,-1.87253 2.545,-2.28165 z"
     style="opacity:0.975;stroke-width:0.175512"
     id="path10" />
  <path
     fill="#0ca3f1"
     d="m 262.74097,55.6372 c 4.7353,-0.46897 7.368,1.63717 7.898,6.31842 -0.5037,4.61315 -3.0767,6.68998 -7.7225,6.23066 -3.849,-1.217 -5.4584,-3.82036 -4.8266,-7.81027 0.7635,-2.37221 2.3133,-3.95182 4.6511,-4.73881 z"
     style="opacity:0.988;stroke-width:0.175512"
     id="path11" />
</svg>
